ply
format ascii 1.0
comment Created by Blender 2.78 (sub 0) - www.blender.org, source file: 'SHADOW.blend'
element vertex 16
property float x
property float y
property float z
property float nx
property float ny
property float nz
property float s
property float t
element face 18
property list uchar uint vertex_indices
end_header
-12.907241 12.586906 0.000000 0.000000 -0.000000 1.000000 1.000000 1.000000
-12.907244 2.272464 0.000000 0.000000 -0.000000 1.000000 0.793657 1.000000
-1.324208 2.272462 0.000000 0.000000 -0.000000 1.000000 0.793657 0.812395
1.226635 12.586904 0.000000 0.000000 -0.000000 1.000000 1.000000 0.187605
1.226634 2.272462 0.000000 0.000000 -0.000000 1.000000 0.793657 0.187605
12.809669 2.272461 0.000000 0.000000 -0.000000 1.000000 0.793657 0.000000
-1.324209 -2.174864 0.000000 0.000000 0.000000 1.000000 0.206343 0.812395
12.809669 -2.174865 0.000000 0.000000 0.000000 1.000000 0.206343 0.000000
-12.907244 -2.174862 0.000000 -0.000000 0.000000 1.000000 0.206343 1.000000
-12.907252 -12.489304 0.000000 -0.000000 0.000000 1.000000 0.000000 1.000000
-1.324210 -12.489306 0.000000 0.000000 0.000000 1.000000 0.000000 0.812395
1.226632 -12.489306 0.000000 0.000000 0.000000 1.000000 0.000000 0.187605
1.226633 -2.174864 0.000000 0.000000 0.000000 1.000000 0.206343 0.187605
12.809667 -12.489309 0.000000 0.000000 -0.000000 1.000000 0.000000 0.000000
-1.324207 12.586904 0.000000 -0.000000 -0.000000 1.000000 1.000000 0.812395
12.809678 12.586901 0.000000 -0.000000 -0.000000 1.000000 1.000000 0.000000
3 0 1 2
3 3 4 5
3 6 2 1
3 7 5 4
3 6 8 9
3 2 4 3
3 4 2 6
3 10 11 12
3 12 11 13
3 14 0 2
3 15 3 5
3 8 6 1
3 12 7 4
3 10 6 9
3 14 2 3
3 12 4 6
3 6 10 12
3 7 12 13
